<svg id="b41144de-c96d-41cd-b20d-12643cd1a760" data-name="Capa 1" xmlns="http://www.w3.org/2000/svg" viewBox="0 0 229.45 74.25"><defs><style>.a33c6afb-e966-484c-8341-b6ecfea79f68{fill:#fff;}</style></defs><title>Sin título-1</title><path class="a33c6afb-e966-484c-8341-b6ecfea79f68" d="M78.92,344.91l-7.61-1.34a1.74,1.74,0,0,1-1.65-2.25l8-45.33a.9.9,0,0,0-.82-1.18L66.51,293A1.71,1.71,0,0,1,65,290.76L66,284.61A1.71,1.71,0,0,1,68.27,283l34.21,6a1.71,1.71,0,0,1,1.56,2.24L103,297.46a1.71,1.71,0,0,1-2.24,1.57L90.4,297.21c-.72-.13-1.14.14-1.26.8l-8,45.34A1.69,1.69,0,0,1,78.92,344.91Z" transform="translate(-64.9 -282.99)"/><path class="a33c6afb-e966-484c-8341-b6ecfea79f68" d="M116.29,351.5l-2.17-.38q-7.16-1.26-10.37-5.75t-2-11.63l2.93-16.65q1.26-7.15,5.82-10.27T122.25,305l20.91,3.68a1.75,1.75,0,0,1,1.65,2.25l-7.46,42.36a1.76,1.76,0,0,1-2.33,1.55l-7.6-1.34a1.71,1.71,0,0,1-1.57-2.24l.53-3-.36-.06a6.93,6.93,0,0,1-4.18,3A12.26,12.26,0,0,1,116.29,351.5Zm12.2-15.2,3.23-18.37c.12-.67-.18-1.06-.91-1.19l-8.5-1.5q-2.9-.51-4.29.51c-.93.67-1.56,2-1.9,3.91l-2.75,15.56a6,6,0,0,0,.45,4.33c.65.95,1.93,1.59,3.86,1.93l3.35.59Q127.27,343.18,128.49,336.3Z" transform="translate(-64.9 -282.99)"/><path class="a33c6afb-e966-484c-8341-b6ecfea79f68" d="M177.23,343.37l-7.16,1a1.63,1.63,0,0,1-2.12-1.52l-6-42.68a.84.84,0,0,0-1.07-.81l-9.71,1.38a1.6,1.6,0,0,1-2-1.54l-.82-5.79a1.59,1.59,0,0,1,1.53-2L182,286.81a1.6,1.6,0,0,1,2,1.54l.82,5.79a1.6,1.6,0,0,1-1.54,2.05l-9.71,1.37c-.68.1-1,.46-.89,1.08l6.05,42.69A1.6,1.6,0,0,1,177.23,343.37Z" transform="translate(-64.9 -282.99)"/><path class="a33c6afb-e966-484c-8341-b6ecfea79f68" d="M229.2,336l-18.83,2.67q-6.72.94-10.9-2.11t-5.12-9.79l-2.22-15.68q-1-6.72,2.2-10.82t9.89-5l6.73-1q6.74-.94,10.9,2.11t5.12,9.79L228.51,317a1.6,1.6,0,0,1-1.54,2l-21.38,3c-.69.1-1,.46-.89,1.08L205,325a5.22,5.22,0,0,0,1.69,3.62,5.43,5.43,0,0,0,4,.61l17.21-2.44a1.63,1.63,0,0,1,2,1.62l.8,5.62a1.85,1.85,0,0,1-.2,1.38A2,2,0,0,1,229.2,336Zm-24.64-21.19,11.59-1.64a.84.84,0,0,0,.8-1.07l-.58-4.09c-.25-1.82-.8-3-1.65-3.68s-2.17-.82-4-.56l-3.58.5c-1.82.26-3,.81-3.67,1.65s-.82,2.18-.57,4l.58,4.09A.84.84,0,0,0,204.56,314.82Z" transform="translate(-64.9 -282.99)"/><path class="a33c6afb-e966-484c-8341-b6ecfea79f68" d="M251.4,354.18l-8.48-.73c-1.48-.13-2.16-.9-2-2.31l4.39-50.56a1,1,0,0,0-1-1.21l-11.5-1a1.88,1.88,0,0,1-1.94-2.3l.6-6.86a1.88,1.88,0,0,1,2.3-1.94l38.14,3.32a1.88,1.88,0,0,1,1.94,2.3l-.6,6.86a1.88,1.88,0,0,1-2.3,1.94l-11.51-1c-.8-.07-1.24.26-1.3,1l-4.4,50.56A1.87,1.87,0,0,1,251.4,354.18Z" transform="translate(-64.9 -282.99)"/><path class="a33c6afb-e966-484c-8341-b6ecfea79f68" d="M280.74,296.14l.77-8.78a1.78,1.78,0,0,1,2.19-1.84l8.78.76c1.35.12,2,.82,1.85,2.09l-.77,8.88a1.8,1.8,0,0,1-2.19,1.85l-8.78-.77A1.79,1.79,0,0,1,280.74,296.14Zm-5,58,4.1-47.22c.13-1.42.86-2.06,2.21-1.95l8.68.76a1.88,1.88,0,0,1,1.93,2.3l-4.11,47.23a2.28,2.28,0,0,1-.6,1.67,2.36,2.36,0,0,1-1.6.27l-8.68-.75A1.89,1.89,0,0,1,275.7,354.16Z" transform="translate(-64.9 -282.99)"/></svg>