<svg id="a72e3b36-3a76-4c65-8274-bc78a8922456" data-name="Capa 1" xmlns="http://www.w3.org/2000/svg" viewBox="0 0 168.1 168"><defs><style>.ec4f4d11-2b08-4172-ab8a-8a6f1a0ea3f1{fill:#cd2b76;}.ed0eaa70-7ec6-438f-ab03-8c553263da31{fill:#5dd0fd;}</style></defs><title>Sin título-1</title><path class="ec4f4d11-2b08-4172-ab8a-8a6f1a0ea3f1" d="M-175,422.1a42.1,42.1,0,0,1-42-42,42.1,42.1,0,0,1,42-42,42,42,0,0,1,42,42A42.1,42.1,0,0,1-175,422.1Zm0-70.1a28.1,28.1,0,0,0-28.1,28.1,28.1,28.1,0,0,0,28.1,28,28.1,28.1,0,0,0,28.1-28A28.1,28.1,0,0,0-175,352Z" transform="translate(301 -338.1)"/><path class="ed0eaa70-7ec6-438f-ab03-8c553263da31" d="M-246.2,380.1l26.6-26.6a9.1,9.1,0,0,0,0-12.8,9.1,9.1,0,0,0-12.8,0L-259,367.2l-26.5-26.5a9.1,9.1,0,0,0-12.8,0,8.9,8.9,0,0,0,0,12.8l26.5,26.6-26.5,26.5a8.9,8.9,0,0,0,0,12.8,9,9,0,0,0,6.4,2.7,9,9,0,0,0,6.4-2.7l26.5-26.5,26.6,26.5a8.7,8.7,0,0,0,6.4,2.7,9,9,0,0,0,6.4-2.7,9.1,9.1,0,0,0,0-12.8Z" transform="translate(301 -338.1)"/><path class="ec4f4d11-2b08-4172-ab8a-8a6f1a0ea3f1" d="M-259,506.1a42.1,42.1,0,0,0,42-42,42,42,0,0,0-42-42,42,42,0,0,0-42,42A42.1,42.1,0,0,0-259,506.1Zm0-70.1a28.1,28.1,0,0,1,28.1,28.1,28.1,28.1,0,0,1-28.1,28,28.1,28.1,0,0,1-28.1-28A28.1,28.1,0,0,1-259,436Z" transform="translate(301 -338.1)"/><path class="ed0eaa70-7ec6-438f-ab03-8c553263da31" d="M-187.8,464.1l-26.5-26.6a8.9,8.9,0,0,1,0-12.8,9.1,9.1,0,0,1,12.8,0l26.5,26.5,26.6-26.5a9.1,9.1,0,0,1,12.8,0,9.1,9.1,0,0,1,0,12.8l-26.5,26.6,26.5,26.5a9.1,9.1,0,0,1,0,12.8,9,9,0,0,1-6.4,2.7,8.9,8.9,0,0,1-6.4-2.7L-175,476.9l-26.5,26.5a9,9,0,0,1-6.4,2.7,9,9,0,0,1-6.4-2.7,8.9,8.9,0,0,1,0-12.8Z" transform="translate(301 -338.1)"/></svg>